<svg xmlns="http://www.w3.org/2000/svg" viewBox="0 0 37.68 25.195"><path d="M15.551,20.735c-.711.232-1.262.443-1.829.587-.526.134-.991.123-1.142-.6a1.275,1.275,0,0,0-.592-.692c-1.327-.788-2.675-1.537-3.995-2.287l2.772-2.025c-.027-.031-.056-.062-.083-.094-1.634,1-3.288,1.963-4.891,3.008A5.665,5.665,0,0,0,4.048,20.2c-.931,1.484-.772,2.345.379,3.129a6.645,6.645,0,0,1,.921.982,12.388,12.388,0,0,1-1.248.633c-1.36.5-1.4.334-1.773-1.066-.73-2.749.353-4.9,2.007-6.89a4.474,4.474,0,0,0,1.113-3.13c-.025-.965.118-1.933.189-2.955-.523.364-1.1.722-1.631,1.145-1.215.974-2.08,1.125-3,.463A2.709,2.709,0,0,1,.2,9.331a16.747,16.747,0,0,1,.825-1.618A1.8,1.8,0,0,1,.991,9.936c-.434.59-.695,1.173-.158,1.8a1.566,1.566,0,0,0,2,.33,4,4,0,0,0,1.287-.941,25.968,25.968,0,0,1,6.215-4.8,30.341,30.341,0,0,1,3.268-1.8c-.331.357-.662.716-.994,1.073l.16.144c.7-.753,1.431-1.473,2.08-2.264A9.957,9.957,0,0,1,19.1.4a4.879,4.879,0,0,1,4.318.22,27.731,27.731,0,0,1,7.7,5.8c.291.345.445.8.709,1.175A.942.942,0,0,0,32.39,8c.616.048.863.383,1.019.937a2.282,2.282,0,0,0,2.759,1.846c.492-.056.98-.162,1.512-.253-1.359,1.781-3.448,1.855-5.329.413-.753.657-1.475,1.262-2.166,1.9a18.574,18.574,0,0,0-2.054,2.029c-.861,1.093-1.055.947-2.038,0-1.108-1.07-.464-1.995-.28-3.023a6.731,6.731,0,0,0,.113-1.8c-.062.807.013,1.561-1.03,1.939-.413.149-.635.828-.908,1.214.138.087.369.157.477.313q1.43,2.048,2.816,4.124a12.059,12.059,0,0,1,.586,1.135c-.7-.035-1.165-.055-1.629-.082-.84-.05-1.414-.231-1.56-1.308A3.631,3.631,0,0,0,20.6,14.645l1.1-1.273a4,4,0,0,0-2.04,2.923c-.249,1.516,1.127,2.054,1.94,3.278-.948.091-1.676.2-2.405.2-.175,0-.477-.32-.511-.527-.3-1.792-.546-3.591-.809-5.389l.291.085a6,6,0,0,1-1.1.556,5.232,5.232,0,0,1-1.864.313c-2.156-.228-3.143,1.557-4.747,2.464,1.377,1.681,3.744,1.66,5.092,3.457" fill="#4FAD8F"/></svg>